<mxfile host="app.diagrams.net" modified="2023-10-07T21:31:56.171Z" agent="Mozilla/5.0 (Windows NT 10.0; Win64; x64) AppleWebKit/537.36 (KHTML, like Gecko) Chrome/117.0.0.0 Safari/537.36" etag="sCS9UQkrpGkZOp1eCfJg" version="22.0.4" type="github">
  <diagram name="Page-1" id="8cyfHYo5EnxY-vR_mNII">
    <mxGraphModel dx="1434" dy="750" grid="1" gridSize="10" guides="1" tooltips="1" connect="1" arrows="1" fold="1" page="1" pageScale="1" pageWidth="850" pageHeight="1100" math="0" shadow="0">
      <root>
        <mxCell id="0" />
        <mxCell id="1" parent="0" />
        <mxCell id="9dqe9yT7aLzKKw0CayPs-7" value="" style="shape=table;startSize=0;container=1;collapsible=0;childLayout=tableLayout;" vertex="1" parent="1">
          <mxGeometry x="200" y="140" width="570" height="144" as="geometry" />
        </mxCell>
        <mxCell id="9dqe9yT7aLzKKw0CayPs-8" value="" style="shape=tableRow;horizontal=0;startSize=0;swimlaneHead=0;swimlaneBody=0;strokeColor=inherit;top=0;left=0;bottom=0;right=0;collapsible=0;dropTarget=0;fillColor=none;points=[[0,0.5],[1,0.5]];portConstraint=eastwest;" vertex="1" parent="9dqe9yT7aLzKKw0CayPs-7">
          <mxGeometry width="570" height="30" as="geometry" />
        </mxCell>
        <mxCell id="9dqe9yT7aLzKKw0CayPs-9" value="&lt;font size=&quot;1&quot; style=&quot;&quot;&gt;&lt;b style=&quot;font-size: 15px;&quot;&gt;Microservice 1&lt;/b&gt;&lt;/font&gt;" style="shape=partialRectangle;html=1;whiteSpace=wrap;connectable=0;strokeColor=inherit;overflow=hidden;fillColor=none;top=0;left=0;bottom=0;right=0;pointerEvents=1;" vertex="1" parent="9dqe9yT7aLzKKw0CayPs-8">
          <mxGeometry width="570" height="30" as="geometry">
            <mxRectangle width="570" height="30" as="alternateBounds" />
          </mxGeometry>
        </mxCell>
        <mxCell id="9dqe9yT7aLzKKw0CayPs-10" value="" style="shape=tableRow;horizontal=0;startSize=0;swimlaneHead=0;swimlaneBody=0;strokeColor=inherit;top=0;left=0;bottom=0;right=0;collapsible=0;dropTarget=0;fillColor=none;points=[[0,0.5],[1,0.5]];portConstraint=eastwest;" vertex="1" parent="9dqe9yT7aLzKKw0CayPs-7">
          <mxGeometry y="30" width="570" height="114" as="geometry" />
        </mxCell>
        <mxCell id="9dqe9yT7aLzKKw0CayPs-11" value="&lt;div style=&quot;&quot;&gt;&lt;span style=&quot;background-color: initial;&quot;&gt;&lt;font style=&quot;font-size: 14px;&quot;&gt;&quot;UserRepository&quot;, &quot;EmailConfig&quot;, &quot;AuthUserRepository&quot;, &quot;TrainServiceImpl&quot;, &quot;PriceController&quot;, &quot;JWTUtil&quot;, &quot;PriceConfigRepository&quot;, &quot;JsonUtils&quot;, &quot;DeliveryRepository&quot;, &quot;NotificationController&quot;, &quot;ExecuteControlller&quot;, &quot;FoodController&quot;, &quot;RouteInfo&quot;, &quot;JWTProvider&quot;, &quot;AssuranceType&quot;, &quot;Type&quot;, &quot;ItemNameUtil&quot;, &quot;VerifyCodeService&quot;, &quot;TrainTicketApplication&quot;, &quot;BaseException&quot;, &quot;SecurityConfig&quot;, &quot;CommonOrderAlterInfo&quot;, &quot;ConsignController&quot;, &quot;SecurityRepository&quot;, &quot;Trigger&quot;, &quot;InsidePayment&quot;, &quot;NotifyRepository&quot;&lt;/font&gt;&lt;/span&gt;&lt;/div&gt;" style="shape=partialRectangle;html=1;whiteSpace=wrap;connectable=0;strokeColor=inherit;overflow=hidden;fillColor=none;top=0;left=0;bottom=0;right=0;pointerEvents=1;align=center;" vertex="1" parent="9dqe9yT7aLzKKw0CayPs-10">
          <mxGeometry width="570" height="114" as="geometry">
            <mxRectangle width="570" height="114" as="alternateBounds" />
          </mxGeometry>
        </mxCell>
      </root>
    </mxGraphModel>
  </diagram>
</mxfile>
